<svg width="401" height="401" viewBox="0 0 401 401" fill="none" xmlns="http://www.w3.org/2000/svg">
<rect width="400" height="400" transform="translate(0.875977 0.799683)" fill="white"/>
<path fill-rule="evenodd" clip-rule="evenodd" d="M254.962 136.349C244.401 125.988 231.39 120.808 215.93 120.808H156.004V280.793H187.689V228.226H187.701V198.743H187.689V150.291H215.93C222.665 150.291 228.252 152.576 232.691 157.147C237.13 161.718 239.349 167.508 239.349 174.517C239.349 181.374 237.13 187.163 232.691 191.887C228.252 196.458 222.665 198.743 215.93 198.743H203.924V228.226H215.93C231.39 228.226 244.401 223.046 254.962 212.685C265.524 202.324 270.805 189.601 270.805 174.517C270.805 159.433 265.524 146.71 254.962 136.349Z" fill="#0095FF"/>
<path fill-rule="evenodd" clip-rule="evenodd" d="M242.178 83.7594C192.243 58.0158 142.308 63.7872 142.308 63.7872C142.308 63.7872 190.017 34.937 254.218 63.2349C318.419 91.5329 313.515 173.41 313.515 173.41C313.515 173.41 292.113 109.503 242.178 83.7594ZM114.165 110.587C68.454 143.186 50.9491 190.096 50.9491 190.096C50.9491 190.096 46.7878 134.68 101.258 90.587C155.729 46.4936 226.796 88.0189 226.796 88.0189C226.796 88.0189 159.876 77.9879 114.165 110.587ZM122.521 328.465C122.521 328.465 88.4824 291.641 80.0489 236.302C71.6155 180.962 110.981 126.161 110.981 126.161C110.981 126.161 41.5575 170.338 56.2952 238.67C71.0329 307.002 122.521 328.465 122.521 328.465ZM177.106 323.626C230.466 341.278 278.882 327.802 278.882 327.802C278.882 327.802 236.299 363.722 168.436 345.779C100.58 327.83 92.5562 246.195 92.5562 246.195C92.5562 246.195 123.745 305.973 177.106 323.626ZM349.273 188.826C349.273 188.826 339.355 237.883 299.331 277.199C259.307 316.515 191.632 317.026 191.632 317.026C191.632 317.026 268.344 346.974 315.22 294.934C362.097 242.895 349.273 188.826 349.273 188.826ZM300.032 261.314C300.315 261.334 300.672 260.994 301.09 260.339C300.46 260.933 300.089 261.263 300.032 261.314ZM320.443 173.824C321.878 191.749 306.447 251.94 301.09 260.339C309.155 252.721 359.668 201.769 336.353 141.681C323.966 109.752 304.637 90.2975 288.138 78.7684C300.178 91.4504 309.145 107.715 314.624 127.059C321.657 151.905 320.499 172.941 320.443 173.824Z" fill="#011626"/>
</svg>
